# Blender v2.81 (sub 16) OBJ File: 'hangar.blend'
# www.blender.org
mtllib hangar_hangar door.mtl
o hangar_Cube.022
v 3.260786 -0.735005 2.314799
v 3.260786 -0.797966 2.114522
v 3.260786 0.668903 2.114522
v 3.260786 0.605941 2.314799
v 3.260786 -0.797966 -2.150966
v 3.260786 -0.735005 -2.351243
v 3.260786 0.605941 -2.351243
v 3.260786 0.668903 -2.150966
v -1.914064 -0.746853 1.995037
v -1.867606 -0.797966 2.114522
v -1.914064 -0.693702 2.164109
v -1.867606 -0.735005 2.314799
v -1.914064 0.564638 2.164109
v -1.867606 0.605941 2.314799
v -1.914064 0.617789 1.995037
v -1.867606 0.668903 2.114522
v -1.914064 -0.693702 -2.200553
v -1.867606 -0.735005 -2.351243
v -1.914064 -0.746853 -2.031482
v -1.867606 -0.797966 -2.150966
v -1.914064 0.617789 -2.031482
v -1.867606 0.668903 -2.150966
v -1.914064 0.564638 -2.200553
v -1.867606 0.605941 -2.351243
vt 0.625000 0.739269
vt 0.872756 0.739269
vt 0.872756 0.750000
vt 0.625000 0.750000
vt 0.375000 0.510731
vt 0.385731 0.500000
vt 0.614269 0.500000
vt 0.625000 0.510731
vt 0.614269 0.750000
vt 0.385731 0.750000
vt 0.375000 0.739269
vt 0.127244 0.510731
vt 0.127244 0.500000
vt 0.375000 0.500000
vt 0.614269 0.997756
vt 0.385731 0.997756
vt 0.872756 0.510731
vt 0.625000 0.500000
vt 0.872756 0.500000
vt 0.385731 0.252244
vt 0.614269 0.252244
vt 0.127244 0.739269
vt 0.377418 0.238705
vt 0.386967 0.248254
vt 0.385731 0.250000
vt 0.375000 0.239269
vt 0.613033 0.248254
vt 0.622581 0.238705
vt 0.625000 0.239269
vt 0.614269 0.250000
vt 0.386967 0.001746
vt 0.377418 0.011295
vt 0.375000 0.010731
vt 0.385731 0.000000
vt 0.622581 0.011295
vt 0.613033 0.001746
vt 0.614269 0.000000
vt 0.625000 0.010731
vt 0.613033 1.000000
vt 0.386967 1.000000
vt 0.875000 0.511295
vt 0.875000 0.738705
vt 0.375000 0.750000
vt 0.127244 0.750000
vn 0.0000 0.9540 0.2999
vn 1.0000 0.0000 0.0000
vn 0.0000 -0.9540 -0.2999
vn 0.0000 0.0000 1.0000
vn 0.0000 0.9540 -0.2999
vn 0.0000 0.0000 -1.0000
vn 0.0000 -1.0000 0.0000
vn 0.0000 1.0000 0.0000
vn -0.8765 -0.4592 -0.1444
vn -0.8765 0.4592 -0.1444
vn -0.8765 -0.4592 0.1444
vn -0.8765 0.4592 0.1444
vn -0.7400 -0.6726 0.0000
vn -0.9556 0.0000 0.2946
vn -0.7400 0.6726 0.0000
vn -0.9556 0.0000 -0.2946
vn 0.0000 -0.9540 0.2999
usemtl Material.010
s off
f 3/1/1 16/2/1 14/3/1 4/4/1
f 5/5/2 6/6/2 7/7/2 8/8/2 3/1/2 4/9/2 1/10/2 2/11/2
f 5/5/3 20/12/3 18/13/3 6/14/3
f 1/10/4 4/9/4 14/15/4 12/16/4
f 22/17/5 8/8/5 7/18/5 24/19/5
f 18/20/6 24/21/6 7/7/6 6/6/6
f 20/12/7 5/5/7 2/11/7 10/22/7
f 8/8/8 22/17/8 16/2/8 3/1/8
f 19/23/9 17/24/9 18/25/9 20/26/9
f 23/27/10 21/28/10 22/29/10 24/30/10
f 11/31/11 9/32/11 10/33/11 12/34/11
f 15/35/12 13/36/12 14/37/12 16/38/12
f 9/32/13 19/23/13 20/26/13 10/33/13
f 12/16/14 14/15/14 13/39/14 11/40/14
f 16/2/15 22/17/15 21/41/15 15/42/15
f 24/21/16 18/20/16 17/24/16 23/27/16
f 10/22/17 2/11/17 1/43/17 12/44/17
o hangar_door_Cube.044
v 3.135866 -0.738971 1.434748
v 3.135866 -0.778182 1.310018
v 3.135866 0.135361 1.310018
v 3.135866 0.096150 1.434748
v 3.135866 -0.778182 -1.346463
v 3.135866 -0.738971 -1.471192
v 3.135866 0.096150 -1.471192
v 3.135866 0.135361 -1.346463
v 3.108644 -0.738971 -1.471192
v 3.108644 -0.778182 -1.346463
v 3.108644 0.135361 -1.346463
v 3.108644 0.096150 -1.471192
v 3.108644 -0.778182 1.310018
v 3.108644 -0.738971 1.434748
v 3.108644 0.096150 1.434748
v 3.108644 0.135361 1.310018
vt 0.375000 0.510731
vt 0.375000 0.739269
vt 0.385731 0.750000
vt 0.614269 0.750000
vt 0.625000 0.739269
vt 0.625000 0.510731
vt 0.614269 0.500000
vt 0.385731 0.500000
vt 0.375000 0.510731
vt 0.385731 0.500000
vt 0.614269 0.500000
vt 0.625000 0.510731
vt 0.625000 0.739269
vt 0.614269 0.750000
vt 0.385731 0.750000
vt 0.375000 0.739269
vn -1.0000 0.0000 0.0000
vn 1.0000 0.0000 0.0000
vn 0.0000 0.9540 -0.2999
vn 0.0000 0.9540 0.2999
vn 0.0000 0.0000 1.0000
vn 0.0000 0.0000 -1.0000
vn 0.0000 -0.9540 -0.2999
vn 0.0000 -0.9540 0.2999
vn 0.0000 -1.0000 0.0000
vn 0.0000 1.0000 0.0000
usemtl Material.017
s off
f 29/45/18 26/46/18 25/47/18 28/48/18 27/49/18 32/50/18 31/51/18 30/52/18
f 34/53/19 33/54/19 36/55/19 35/56/19 40/57/19 39/58/19 38/59/19 37/60/19
f 25/47/20 26/46/20 37/60/20 38/59/20
f 29/45/21 30/52/21 33/54/21 34/53/21
f 30/52/22 31/51/22 36/55/22 33/54/22
f 28/48/23 25/47/23 38/59/23 39/58/23
f 27/49/24 28/48/24 39/58/24 40/57/24
f 31/51/25 32/50/25 35/56/25 36/55/25
f 32/50/26 27/49/26 40/57/26 35/56/26
f 26/46/27 29/45/27 34/53/27 37/60/27
