# Blender v2.81 (sub 16) OBJ File: 'hangar.blend'
# www.blender.org
mtllib ship_glass.mtl
o space_ship_glass_Cube.011
v -0.902751 -0.290500 -0.217456
v -0.875286 -0.265200 0.175028
v -0.869709 -0.256783 0.158774
v -0.867659 -0.256783 -0.182054
v -0.871802 -0.263262 -0.194618
v -0.990489 -0.442320 0.157983
v -0.986145 -0.435495 0.174361
v -0.984169 -0.435875 -0.195293
v -0.988457 -0.442320 -0.179878
v -0.905741 -0.291279 0.197496
vt 0.499978 0.992784
vt 0.498980 0.757216
vt 0.618953 0.767595
vt 0.381047 0.982944
vt 0.381047 0.767636
vt 0.389799 0.757216
vt 0.608160 0.757216
vt 0.618953 0.984794
vt 0.610644 0.992784
vt 0.389312 0.992784
vn -0.7975 0.6030 -0.0183
vn -0.7974 0.6032 0.0124
vn -0.6723 0.7396 0.0330
vn -0.8725 0.4883 -0.0172
vn -0.8728 0.4880 0.0067
vn -0.8751 0.4829 0.0309
vn -0.5197 0.8183 0.2454
vn -0.6695 0.7416 -0.0427
vn -0.5346 0.8099 -0.2414
vn -0.8744 0.4834 -0.0411
usemtl Material.002
s 1
f 1/1/1 10/2/2 3/3/3
f 9/4/4 6/5/5 1/1/1
f 6/5/5 7/6/6 10/2/2
f 10/2/2 2/7/7 3/3/3
f 3/3/3 4/8/8 1/1/1
f 4/8/8 5/9/9 1/1/1
f 1/1/1 8/10/10 9/4/4
f 6/5/5 10/2/2 1/1/1
