# Blender v2.81 (sub 16) OBJ File: 'hangar.blend'
# www.blender.org
mtllib stand_ramp.mtl
o ramp_Cube.028
v 0.690078 -0.568839 0.436421
v 0.682709 -0.751233 0.436421
v 0.690078 -0.568839 -0.368552
v 0.682709 -0.751233 -0.368552
v 1.571054 -0.742530 0.436421
v 1.571054 -0.751233 0.436421
v 1.571054 -0.742530 -0.368552
v 1.571054 -0.751233 -0.368552
vt 0.375000 0.000000
vt 0.375000 0.250000
vt 0.625000 0.250000
vt 0.625000 0.000000
vt 0.375000 0.500000
vt 0.625000 0.500000
vt 0.375000 0.750000
vt 0.625000 0.750000
vt 0.375000 1.000000
vt 0.625000 1.000000
vt 0.125000 0.500000
vt 0.125000 0.750000
vt 0.875000 0.750000
vt 0.875000 0.500000
vn -0.9992 0.0404 0.0000
vn 0.0000 0.0000 -1.0000
vn 1.0000 0.0000 0.0000
vn 0.0000 0.0000 1.0000
vn 0.1934 0.9811 0.0000
vn 0.0000 -1.0000 0.0000
usemtl Material.012
s off
f 1/1/1 3/2/1 4/3/1 2/4/1
f 3/2/2 7/5/2 8/6/2 4/3/2
f 7/5/3 5/7/3 6/8/3 8/6/3
f 5/7/4 1/9/4 2/10/4 6/8/4
f 3/11/5 1/12/5 5/7/5 7/5/5
f 8/6/6 6/8/6 2/13/6 4/14/6
o stand.004_Cube.027
v 0.540935 -0.864904 -0.738103
v 0.540935 -0.583005 -0.738103
v 0.540935 -0.864904 0.769946
v 0.540935 -0.583005 0.769946
v -0.967113 -0.864904 -0.738103
v -0.967113 -0.583005 -0.738103
v -0.967113 -0.864904 0.769946
v -0.967113 -0.583005 0.769946
v -0.213089 -0.867999 -1.009078
v -0.213089 -0.585185 1.040921
v -0.213089 -0.867999 1.040921
v -0.213089 -0.585185 -1.009078
v -1.238089 -0.867999 0.015922
v -1.238089 -0.585185 0.015922
v 0.811911 -0.867999 0.015922
v 0.811911 -0.585185 0.015922
v -0.213089 -0.867999 0.015922
v -1.238089 -0.549806 0.015922
v -0.967113 -0.547626 0.769946
v -0.213089 -0.549806 1.040921
v 0.540935 -0.547626 0.769946
v 0.811911 -0.549806 0.015922
v 0.540935 -0.547626 -0.738103
v -0.213089 -0.549806 -1.009078
v -0.967113 -0.547626 -0.738103
v -0.213089 -0.549806 0.015922
v -1.317623 -0.585108 0.015922
v -1.025621 -0.585828 0.828454
v -0.213089 -0.585108 1.120456
v 0.599444 -0.585828 0.828454
v 0.891446 -0.585108 0.015922
v 0.599444 -0.585828 -0.796611
v -0.213089 -0.585108 -1.088613
v -1.025621 -0.585828 -0.796611
v -0.213089 -0.546983 1.120456
v -1.025621 -0.547704 0.828454
v -0.213089 -0.546983 -1.088613
v 0.599444 -0.547704 -0.796611
v -1.317623 -0.546983 0.015922
v 0.599444 -0.547704 0.828454
v 0.891446 -0.546983 0.015922
v -1.025621 -0.547704 -0.796611
vt 0.375000 0.125000
vt 0.625000 0.125000
vt 0.625000 0.250000
vt 0.375000 0.250000
vt 0.375000 0.375000
vt 0.625000 0.375000
vt 0.625000 0.500000
vt 0.375000 0.500000
vt 0.375000 0.625000
vt 0.625000 0.625000
vt 0.625000 0.750000
vt 0.375000 0.750000
vt 0.375000 0.875000
vt 0.625000 0.875000
vt 0.625000 1.000000
vt 0.375000 1.000000
vt 0.750000 0.625000
vt 0.875000 0.625000
vt 0.875000 0.750000
vt 0.750000 0.750000
vt 0.750000 0.500000
vt 0.875000 0.500000
vt 0.375000 0.000000
vt 0.625000 0.000000
vt 0.375000 0.500000
vt 0.375000 0.375000
vt 0.375000 0.500000
vt 0.250000 0.500000
vt 0.250000 0.500000
vt 0.375000 0.500000
vt 0.375000 0.875000
vt 0.375000 0.750000
vt 0.125000 0.750000
vt 0.250000 0.750000
vt 0.250000 0.750000
vt 0.125000 0.750000
vt 0.250000 0.625000
vt 0.375000 0.625000
vt 0.375000 0.750000
vt 0.125000 0.625000
vt 0.125000 0.500000
vt 0.375000 0.250000
vt 0.375000 0.125000
vt 0.375000 1.000000
vt 0.125000 0.500000
vt 0.375000 0.000000
vt 0.375000 0.625000
vt 0.125000 0.625000
vt 0.375000 0.625000
vt 0.375000 0.750000
vn 0.9411 0.0000 0.3382
vn -0.3382 0.0000 0.9411
vn -0.9411 0.0000 -0.3382
vn 0.3382 0.0000 -0.9411
vn 0.0021 1.0000 -0.0021
vn -0.0021 1.0000 -0.0021
vn -0.3382 0.0000 -0.9411
vn 0.3382 0.0000 0.9411
vn -0.0021 1.0000 0.0021
vn 0.0021 1.0000 0.0021
vn -0.9411 0.0000 0.3382
vn 0.9411 0.0000 -0.3382
vn 0.0054 0.9998 -0.0176
vn 0.0070 -0.9998 -0.0169
vn 0.0054 0.9998 0.0176
vn -0.0070 -0.9998 0.0169
vn 0.0014 -1.0000 0.0014
vn -0.0014 -1.0000 0.0014
vn -0.0014 -1.0000 -0.0014
vn 0.0014 -1.0000 -0.0014
vn -0.0176 0.9998 -0.0054
vn -0.0054 0.9998 0.0176
vn -0.0070 -0.9998 -0.0169
vn -0.0176 0.9998 0.0054
vn 0.0176 0.9998 0.0054
vn -0.0169 -0.9998 -0.0070
vn -0.0169 -0.9998 0.0070
vn 0.0176 0.9998 -0.0054
vn 0.0169 -0.9998 0.0070
vn 0.0070 -0.9998 0.0169
vn -0.0054 0.9998 -0.0176
vn 0.0169 -0.9998 -0.0070
usemtl Material.010
s off
f 22/15/7 21/16/7 13/17/7 14/18/7
f 20/19/8 17/20/8 9/21/8 10/22/8
f 24/23/9 23/24/9 11/25/9 12/26/9
f 18/27/10 19/28/10 15/29/10 16/30/10
f 25/31/11 21/32/11 15/33/11 19/34/11
f 23/24/12 25/31/12 19/34/12 11/25/12
f 12/26/13 11/25/13 19/28/13 18/27/13
f 14/18/14 13/17/14 17/20/14 20/19/14
f 9/21/15 17/35/15 25/31/15 23/24/15
f 17/35/16 13/36/16 21/32/16 25/31/16
f 10/22/17 9/21/17 23/24/17 24/23/17
f 16/37/18 15/38/18 21/16/18 22/15/18
usemtl Material.012
f 20/19/19 10/22/19 40/39/19 41/40/19
f 31/41/20 32/42/20 45/43/20 46/44/20
f 12/26/21 18/27/21 37/45/21 38/46/21
f 27/47/22 28/48/22 43/49/22 44/50/22
f 34/51/23 30/52/23 29/53/23 28/48/23
f 26/54/24 34/51/24 28/48/24 27/47/24
f 33/55/25 32/42/25 34/51/25 26/54/25
f 32/42/26 31/41/26 30/52/26 34/51/26
f 22/15/27 14/18/27 42/56/27 35/57/27
f 18/27/28 16/30/28 36/58/28 37/45/28
f 32/42/29 33/55/29 50/59/29 45/43/29
f 16/37/30 22/15/30 35/57/30 36/60/30
f 24/23/31 12/26/31 38/46/31 39/61/31
f 33/55/32 26/54/32 47/62/32 50/59/32
f 26/54/33 27/47/33 44/50/33 47/62/33
f 10/22/34 24/23/34 39/61/34 40/39/34
f 29/53/35 30/52/35 49/63/35 48/64/35
f 28/48/36 29/53/36 48/64/36 43/49/36
f 14/18/37 20/19/37 41/40/37 42/56/37
f 30/52/38 31/41/38 46/44/38 49/63/38
