# Blender v2.81 (sub 16) OBJ File: 'hangar.blend'
# www.blender.org
mtllib tv glass.mtl
o stand.006_Cylinder.001
v 1.426115 -0.472202 1.173820
v 1.426116 -0.376589 1.173820
v 1.317733 -0.376590 1.108716
v 1.317732 -0.472203 1.108716
v 1.425682 -0.467549 1.162593
v 1.425682 -0.381242 1.162593
v 1.327848 -0.381243 1.103826
v 1.327847 -0.467550 1.103826
v 1.321145 -0.377465 1.105283
v 1.321145 -0.471327 1.105283
v 1.427544 -0.377464 1.169194
v 1.427543 -0.471327 1.169194
vt 0.625000 0.500000
vt 0.375000 0.500000
vt 0.375000 0.500000
vt 0.625000 0.500000
vt 0.375000 0.250000
vt 0.625000 0.250000
vt 0.125000 0.500000
vt 0.125000 0.500000
vt 0.875000 0.500000
vt 0.875000 0.500000
vt 0.375000 0.250000
vt 0.625000 0.250000
vt 0.375000 0.250000
vt 0.625000 0.250000
vt 0.875000 0.500000
vt 0.625000 0.500000
vt 0.375000 0.500000
vt 0.125000 0.500000
vn -0.2124 0.0000 -0.9772
vn 0.5149 0.0000 -0.8572
vn 0.3226 0.7795 -0.5370
vn 0.3226 -0.7795 -0.5370
vn 0.9625 -0.0000 -0.2714
vn 0.9555 -0.0000 0.2950
vn 0.0943 -0.9831 -0.1569
vn 0.0943 0.9831 -0.1569
vn -0.7093 0.0000 -0.7049
usemtl Material.018
s off
f 10/1/1 9/2/1 7/3/1 8/4/1
f 6/5/2 5/6/2 8/4/2 7/3/2
f 9/2/3 11/7/3 6/8/3 7/3/3
f 12/9/4 10/1/4 8/4/4 5/10/4
f 11/11/5 12/12/5 5/6/5 6/5/5
f 2/13/6 1/14/6 12/12/6 11/11/6
f 1/15/7 4/16/7 10/1/7 12/9/7
f 3/17/8 2/18/8 11/7/8 9/2/8
f 4/16/9 3/17/9 9/2/9 10/1/9
